<?xml version="1.0" encoding="utf-8"?>
<!-- Generator: Adobe Illustrator 24.3.0, SVG Export Plug-In . SVG Version: 6.00 Build 0)  -->
<svg version="1.1" id="Layer_1" xmlns="http://www.w3.org/2000/svg" xmlns:xlink="http://www.w3.org/1999/xlink" x="0px" y="0px"
	 viewBox="0 0 50 50" style="enable-background:new 0 0 50 50;" xml:space="preserve">
<style type="text/css">
	.st0{fill:#17A2B8;}
	.st1{fill:#FFFFFF;}
</style>
<path class="st0" d="M0,47.7c0.6-1.8,2.1-1.6,3.5-1.5c0-0.2,0-0.4,0-0.6c0-5.4,0-10.9,0-16.3c0-3.5,2.5-6.1,6.1-6.1c3,0,6,0,8.9,0
	c0.2,0,0.4,0,0.6,0c0-0.2,0-0.4,0-0.5c0-2.9,0-5.7,0-8.6c0-1.4,0.8-2.2,2.2-2.2c2.5,0,4.9,0,7.4,0c1.4,0,2.1,0.8,2.1,2.2
	c0,2.9,0,5.7,0,8.6c0,0.2,0,0.4,0,0.6c0.2,0,0.4,0,0.6,0c3,0,6,0,9,0c3.5,0,6,2.6,6,6c0,5.4,0,10.9,0,16.3c0,0.2,0,0.4,0,0.6
	c0.4,0,0.7,0,1.1,0c1.2-0.1,2,0.4,2.4,1.6c0,0.3,0,0.5,0,0.8c-0.3,0.8-0.8,1.3-1.6,1.6c-15.6,0-31.2,0-46.9,0
	c-0.8-0.3-1.3-0.8-1.6-1.6C0,48.2,0,47.9,0,47.7z M7.5,38.4c0,2.6,0,5.1,0,7.7c11.7,0,23.4,0,35.1,0c0-2.6,0-5.1,0-7.7
	c-2.2,0.7-4.1,0.2-5.8-1.1c-2.6,2-5.3,2-7.8,0c-2.6,1.9-5.2,1.9-7.8,0c-2.6,2-5.2,1.9-7.8,0C11.5,38.6,9.6,39,7.5,38.4z M25,27
	c-5.2,0-10.3,0-15.5,0c-1.2,0-2.1,0.8-2.1,2c0,1.2,0,2.5,0,3.7c0,1.2,0.8,2,1.9,2.1c1.1,0,1.9-0.8,2-2c0.1-1.1,0.9-1.9,2-1.9
	c1.1,0,1.9,0.8,1.9,1.9c0.1,1.2,0.9,2,1.9,2c1.1,0,1.9-0.8,2-2c0.1-1.1,0.9-1.9,2-1.9c1.1,0,1.9,0.8,2,1.9c0.1,1.2,0.9,2,2,2
	c1.1,0,1.9-0.8,1.9-2c0.1-1.1,0.9-1.9,1.9-1.9c1.1,0,1.9,0.8,2,1.9c0.1,1.1,0.9,2,2,2c1.1,0,1.9-0.8,2-2c0.1-1.1,0.9-1.9,2-1.9
	c1.1,0,1.9,0.8,1.9,1.9c0.1,1.2,0.9,2,2,2c1.1,0,1.9-0.9,1.9-2.1c0-1.2,0-2.3,0-3.5c0-1.5-0.8-2.3-2.2-2.3C35.2,27,30.1,27,25,27z
	 M26.9,23.1c0-2.5,0-4.9,0-7.3c-1.3,0-2.6,0-3.8,0c0,2.5,0,4.9,0,7.3C24.4,23.1,25.6,23.1,26.9,23.1z"/>
<path class="st1" d="M0,48.4c0.3,0.8,0.8,1.3,1.6,1.6c-0.5,0-1,0-1.6,0C0,49.5,0,49,0,48.4z"/>
<path class="st1" d="M48.4,50c0.8-0.3,1.3-0.8,1.6-1.6c0,0.5,0,1,0,1.6C49.5,50,49,50,48.4,50z"/>
<path class="st0" d="M27,4c0,0.6,0,1.3,0,1.9c0,1.1-0.9,2-2,2c-1.1,0-1.9-0.8-1.9-2c0-1.3,0-2.6,0-3.9c0-1.1,0.9-2,1.9-2
	c1.1,0,1.9,0.8,1.9,2C27,2.7,27,3.3,27,4z"/>
</svg>
