<svg xmlns="http://www.w3.org/2000/svg" width="44" height="44" viewBox="0 0 44 44"><rect width="44" height="44" fill="#17a2b8"/><g transform="translate(10 10)"><path d="M223.492,71.135l-.177-.076a.974.974,0,0,1,.348-1.875c.258-.007.517,0,.8,0v-.3q0-4.088,0-8.177a2.93,2.93,0,0,1,3.037-3.045h4.76V57.39q0-2.148,0-4.3a.989.989,0,0,1,1.1-1.1q1.839,0,3.678,0a.983.983,0,0,1,1.071,1.079q0,2.148,0,4.3v.289h.28q2.253,0,4.507,0a2.927,2.927,0,0,1,3.01,3.023q0,4.088,0,8.177v.323c.188,0,.364.011.539,0a1.068,1.068,0,0,1,1.216.783v.391a1.143,1.143,0,0,1-.78.781Zm2.941-5.8v3.832h17.51V65.314a2.951,2.951,0,0,1-2.9-.574,2.966,2.966,0,0,1-3.908.008,2.974,2.974,0,0,1-3.912-.012,2.909,2.909,0,0,1-1.94.734,2.951,2.951,0,0,1-1.944-.738A3.042,3.042,0,0,1,226.433,65.333Zm8.744-5.721q-3.861,0-7.721,0a.975.975,0,0,0-1.04,1.036q0,.915,0,1.83a.976.976,0,1,0,1.949.044.974.974,0,0,1,1.948,0,.976.976,0,1,0,1.951-.013.974.974,0,0,1,1.948,0,.976.976,0,1,0,1.951,0,.974.974,0,0,1,1.948.011.975.975,0,1,0,1.95,0,.974.974,0,0,1,1.948-.006.977.977,0,1,0,1.95-.059c0-.578,0-1.155,0-1.733a.994.994,0,0,0-1.109-1.114Zm.964-1.959V53.964h-1.911v3.689Z" transform="translate(-222.71 -46.135)" fill="#fff"/><path d="M400.478-38a1.079,1.079,0,0,1,.785,1.193c-.023.56,0,1.122-.006,1.684a.976.976,0,0,1-.974,1.029.977.977,0,0,1-.974-1.029c0-.561.017-1.123-.006-1.684A1.078,1.078,0,0,1,400.088-38Z" transform="translate(-387.805 38)" fill="#fff"/></g></svg>