<svg xmlns="http://www.w3.org/2000/svg" width="44" height="44" viewBox="0 0 44 44"><rect width="44" height="44" fill="#e38c40"/><g transform="translate(-4790.573 277.797)"><path d="M4812.018-154.844a26.781,26.781,0,0,1-9.16-1.594,8.11,8.11,0,0,1-2.446-1.4,2.123,2.123,0,0,1-.834-1.819c.043-.667.009-1.339.009-2.03a.383.383,0,0,1,.1.035,12.35,12.35,0,0,0,4.138,1.965,32.6,32.6,0,0,0,10.5,1.15,30.466,30.466,0,0,0,6.891-.994,13.846,13.846,0,0,0,4.391-1.911c.125-.088.254-.171.38-.256v2.682a3.485,3.485,0,0,1-1.593,1.747,14.189,14.189,0,0,1-4.205,1.626,30.264,30.264,0,0,1-6.632.8l.007.008v-1.81h-1.555v1.81Z" transform="translate(0 -97.862)" fill="#fff"/><path d="M5109.346-250.071a2.649,2.649,0,0,1-.984,1.347.323.323,0,0,1-.284.037,17.41,17.41,0,0,0-4-1.482c-.064-.017-.129-.038-.191-.056v-3.612a13,13,0,0,1,4.274,1.823,3.021,3.021,0,0,1,1.181,1.48Z" transform="translate(-283.358 -12.069)" fill="#fff"/><path d="M4899.519-62.169v2.432c.091.008.157.018.223.018.756,0,1.512.006,2.268-.006a.37.37,0,0,0,.275-.148,1.747,1.747,0,0,1,2.495-.744,1.741,1.741,0,0,1,.465,2.541l-.038.055a5.631,5.631,0,0,1,.345.818,1.708,1.708,0,0,1-1.076,2.012,1.721,1.721,0,0,1-2.149-.831.328.328,0,0,0-.345-.217q-3.236.009-6.471,0c-.14,0-.242,0-.323.168a1.722,1.722,0,0,1-2.449.745,1.736,1.736,0,0,1-.52-2.511c.029-.042.06-.083.071-.1a5.536,5.536,0,0,1-.346-.814,1.711,1.711,0,0,1,1.1-2.024,1.722,1.722,0,0,1,2.127.836.346.346,0,0,0,.371.222c.8-.01,1.6,0,2.44,0v-2.451l-.008.008h1.555Z" transform="translate(-85.961 -190.537)" fill="#fff"/><path d="M4815.7-263.078c-.27,0-.517.011-.763,0a36.266,36.266,0,0,0-7.246.33,20.785,20.785,0,0,0-6.3,1.836c-.506.253-.506.255-.917-.153a1.583,1.583,0,0,1,.006-2.584,7.62,7.62,0,0,1,2.57-1.533,23.006,23.006,0,0,1,5.919-1.392,37.666,37.666,0,0,1,6.457-.154c.219.012.292.071.289.3-.013,1.039-.005,2.079-.006,3.119C4815.716-263.229,4815.707-263.146,4815.7-263.078Z" transform="translate(-0.225)" fill="#fff"/><path d="M5055.068-259.4c-.592-.082-1.169-.167-1.749-.237-.175-.021-.173-.124-.173-.251q0-1.367,0-2.733v-.713l1.921.293Z" transform="translate(-236.109 -3.23)" fill="#fff"/></g></svg>