<svg xmlns="http://www.w3.org/2000/svg" width="44" height="44" viewBox="0 0 44 44"><rect width="44" height="44" fill="#17a2b8"/><g transform="translate(9 12)"><path d="M795.549,249.619a15.338,15.338,0,0,1-.4,1.588c-.3.82-.653,1.619-1,2.421a5.175,5.175,0,0,0-.314,3.368,1.086,1.086,0,0,1,0,.152,6.625,6.625,0,0,1-.587-.445,6.031,6.031,0,0,1-1.1-1.574,3.68,3.68,0,0,1-.412-1.651,9.267,9.267,0,0,1,.347-2.948,6.454,6.454,0,0,0-.912-5.593c-.5-.765-1.011-1.529-1.486-2.353a4.038,4.038,0,0,1,.812.435c1.163,1.012,2.317,2.035,3.446,3.085a5.526,5.526,0,0,1,1.287,1.751c.13.285.211.592.314.888Z" transform="translate(-769.215 -242.305)" fill="#fff"/><path d="M562.519,252.382c.074-.869.125-1.51.183-2.151a10.08,10.08,0,0,0-.346-3.846,4.775,4.775,0,0,1,.555-4.119q.866-1.354,1.786-2.672a2.612,2.612,0,0,1,1.914-1.022,7.379,7.379,0,0,1,3.355.448,1.472,1.472,0,0,0,.993-.008,7.419,7.419,0,0,1,3.306-.442,2.759,2.759,0,0,1,2.125,1.272c.515.81,1.068,1.6,1.587,2.4a4.761,4.761,0,0,1,.575,4.116,11.045,11.045,0,0,0-.309,4.41,6.63,6.63,0,0,1-.033,2.685c-.362,1.178-.759,2.347-1.169,3.509a3.1,3.1,0,0,1-.5.892,1.432,1.432,0,0,1-2.3.146c-.227-.245-.454-.492-.657-.757-.433-.565-.832-1.156-1.28-1.708-.273-.337-.612-.619-.916-.931a.367.367,0,0,1-.109-.206c-.047-.7-.044-.7.569-1.05.156-.088.316-.172.475-.256a2.474,2.474,0,0,0,1.029-3.278,1.665,1.665,0,0,0-1.031-.833,6.059,6.059,0,0,0-3.445-.087,2.031,2.031,0,0,0-1.484,2.726,2.242,2.242,0,0,0,1.166,1.462c.3.153.581.329.876.485a.362.362,0,0,1,.2.342,1.014,1.014,0,0,1-.406.955,9.381,9.381,0,0,0-1.117,1.3c-.483.6-.931,1.231-1.438,1.81a1.449,1.449,0,0,1-2.371-.179,5.264,5.264,0,0,1-.735-1.632c-.265-.805-.555-1.6-.787-2.418A13.3,13.3,0,0,1,562.519,252.382Zm3.063-7.992a1.163,1.163,0,1,0-.04,2.326,1.163,1.163,0,0,0,.04-2.326Zm9.762,0a1.163,1.163,0,0,0-.008,2.326,1.163,1.163,0,1,0,.008-2.326Z" transform="translate(-557.281 -238.522)" fill="#fff"/><path d="M497.575,243c-.317.466-.616.89-.9,1.326-.336.517-.673,1.035-.983,1.567a6.18,6.18,0,0,0-.58,5.014,9.627,9.627,0,0,1,.288,3.693.317.317,0,0,1-.008.077,5.75,5.75,0,0,1-1.75,2.672,2.127,2.127,0,0,1-.28.156c.049-.376.1-.714.136-1.053a5.78,5.78,0,0,0-.588-2.786c-.374-.9-.756-1.8-1.059-2.726a3.717,3.717,0,0,1,.74-3.708,19.862,19.862,0,0,1,2.5-2.433c.495-.424.981-.856,1.468-1.289A2.26,2.26,0,0,1,497.575,243Z" transform="translate(-491.644 -242.691)" fill="#fff"/><path d="M662.75,410.23c.408.057.805.109,1.2.168a.328.328,0,0,1,.305.369.776.776,0,0,1-.452.813c-.307.147-.593.34-.9.5a.342.342,0,0,1-.271.019c-.349-.18-.689-.378-1.029-.574a.783.783,0,0,1-.324-.936.384.384,0,0,1,.253-.177C661.941,410.336,662.347,410.287,662.75,410.23Z" transform="translate(-649.584 -398.435)" fill="#fff"/><path d="M660.574,495.137a7.4,7.4,0,0,0-3.534,0l-.039-.07,1.64-2.1c.124-.159.245-.122.357.013.219.264.444.523.65.8.324.43.634.871.95,1.307Z" transform="translate(-645.642 -475.386)" fill="#fff"/></g></svg>