<svg xmlns="http://www.w3.org/2000/svg" width="44" height="44" viewBox="0 0 44 44"><rect width="44" height="44" fill="#17a2b8"/><g transform="translate(9 9)"><path d="M153.444,684.428a.92.92,0,0,1-.551-1c.025-.4.005-.806.005-1.233-.476,0-.928,0-1.381,0a.763.763,0,0,1-.853-.858c0-.438,0-.877,0-1.315a.749.749,0,0,1,.807-.8c.463,0,.925,0,1.407,0v-3.945a8.118,8.118,0,0,1-6-4.808,7.816,7.816,0,0,1-.029-6.453,8.15,8.15,0,0,1,10.491-4.419,6.716,6.716,0,0,0-.629.56c-.5.569-.989,1.151-1.467,1.74a.315.315,0,0,1-.327.144,5.2,5.2,0,1,0,4.573,6.167c.09-.519.072-1.056.157-1.576a3.677,3.677,0,0,1,2.145-2.816,8.154,8.154,0,0,1-5.9,11.452v3.953h1.359a.762.762,0,0,1,.857.853c0,.438,0,.877,0,1.315a.75.75,0,0,1-.8.808c-.469,0-.938,0-1.43,0,0,.428-.02.832.005,1.233a.922.922,0,0,1-.551,1Z" transform="translate(-146.172 -659.019)" fill="#fff"/><path d="M289.378,684.365a5.106,5.106,0,0,1-.524-.472c-.92-1.084-1.827-2.179-2.745-3.265a.713.713,0,0,1-.185-.835.744.744,0,0,1,.766-.392c.454.01.908,0,1.379,0V675.22l-1.466-.42c.086-.082.133-.132.185-.176a9.484,9.484,0,0,0,1.93-2.151.289.289,0,0,1,.321-.152,5.206,5.206,0,1,0-4.572-6.169c-.089.51-.073,1.038-.154,1.551a3.688,3.688,0,0,1-2.146,2.845,8.046,8.046,0,0,1,.646-8.018,8.193,8.193,0,1,1,8.261,12.687V679.4h1.088c.116,0,.232,0,.347,0a.705.705,0,0,1,.717.39.681.681,0,0,1-.152.8q-.928,1.1-1.849,2.2c-.3.355-.587.717-.9,1.061a7.491,7.491,0,0,1-.555.511Z" transform="translate(-272.427 -658.956)" fill="#fff"/></g></svg>