<svg xmlns="http://www.w3.org/2000/svg" width="44" height="44" viewBox="0 0 44 44"><rect width="44" height="44" fill="#17a2b8"/><g transform="translate(10 13)"><path d="M170.33,164.191h-25v-18.86h25Zm-23.256-1.744h21.511V147.075H147.075Z" transform="translate(-145.331 -145.33)" fill="#fff"/><path d="M165.621,165.934a2.874,2.874,0,0,1-2.036-.817L153.55,154.949l1.242-1.225,10.032,10.166a1.122,1.122,0,0,0,.8.3,1.109,1.109,0,0,0,.788-.295L176.435,153.8l1.237,1.229-10.026,10.091A2.859,2.859,0,0,1,165.621,165.934Z" transform="translate(-153.083 -153.246)" fill="#fff"/><path d="M160.8,311.82l-1.247-1.22,7.687-7.858,1.247,1.22Z" transform="translate(-158.749 -293.785)" fill="#fff"/><path d="M423.029,313.543l-7.48-7.659,1.248-1.219,7.48,7.659Z" transform="translate(-400.174 -295.6)" fill="#fff"/></g></svg>