<svg xmlns="http://www.w3.org/2000/svg" width="33.282" height="32.202" viewBox="0 0 33.282 32.202"><path d="M1.35,33.226a.325.325,0,0,1-.324-.324V8.994A.324.324,0,0,1,1.35,8.67H8.757V3.628A1.585,1.585,0,0,1,10.4,2.077c.159-.005.943-.011,3.77-.011,3.919,0,9.439.012,9.439.012l.054,0c.007,0,.054,0,.125,0a1.761,1.761,0,0,1,1.153.375,1.467,1.467,0,0,1,.576,1.188c.011.145.025.921,0,4.514l0,.524h7.422A.324.324,0,0,1,33.267,9V32.9a.324.324,0,0,1-.323.324H1.35Zm11.937-5.305a1.366,1.366,0,0,0,1.365,1.365h4.989a1.366,1.366,0,0,0,1.364-1.365V24.954h2.966a1.367,1.367,0,0,0,1.365-1.365v-5a1.367,1.367,0,0,0-1.365-1.365H21.005V14.269A1.366,1.366,0,0,0,19.641,12.9H14.652a1.366,1.366,0,0,0-1.365,1.365v2.957H10.321a1.367,1.367,0,0,0-1.365,1.365v5a1.366,1.366,0,0,0,1.365,1.365h2.966ZM11.3,3.557a.97.97,0,0,0-1.052,1v4.12h13.78V4.617a1.093,1.093,0,0,0-.289-.753.994.994,0,0,0-.741-.3h-11.5A1.456,1.456,0,0,0,11.3,3.557Z" transform="translate(-0.506 -1.545)" fill="#fff"/><path d="M13.695,2.106c3.918,0,9.438.012,9.438.012h.054l.043,0c.011,0,.041,0,.083,0a1.251,1.251,0,0,1,.8.233.985.985,0,0,1,.415.85c.008.113.024.774,0,4.47L24.52,8.711h7.748V32.226H1.067V8.711H8.8V3.105a1.062,1.062,0,0,1,.195-.538,1.035,1.035,0,0,1,.95-.451c.155,0,.932-.011,3.752-.011M9.249,8.711H24.07V4.146a1.618,1.618,0,0,0-.435-1.124,1.53,1.53,0,0,0-1.115-.454H11.047a2.062,2.062,0,0,0-.225-.012A1.494,1.494,0,0,0,9.249,4.072v4.64m3.038,7.515H9.842a1.888,1.888,0,0,0-1.886,1.886v5a1.888,1.888,0,0,0,1.886,1.885h2.446v2.447a1.887,1.887,0,0,0,1.885,1.885h4.989a1.887,1.887,0,0,0,1.885-1.885V24.995h2.446a1.888,1.888,0,0,0,1.886-1.885v-5a1.888,1.888,0,0,0-1.886-1.886H21.046V13.789A1.887,1.887,0,0,0,19.162,11.9H14.172a1.887,1.887,0,0,0-1.885,1.885v2.437M13.695,1.065c-1.96,0-3.519,0-3.787.012a2.056,2.056,0,0,0-1.742.857,2.054,2.054,0,0,0-.409,1.214V7.67H.871a.844.844,0,0,0-.845.844V32.423a.845.845,0,0,0,.845.844H32.465a.844.844,0,0,0,.844-.844V8.514a.844.844,0,0,0-.844-.844h-6.9c.008-1.366.022-4.182-.005-4.553a1.963,1.963,0,0,0-.738-1.53,2.257,2.257,0,0,0-1.51-.517c-.111,0-.178.007-.178.007s-5.522-.011-9.44-.011ZM10.29,7.67v-3.6c0-.411.329-.475.531-.475a.9.9,0,0,1,.155.012H22.52a.5.5,0,0,1,.51.528V7.67H10.29ZM9.842,23.953A.847.847,0,0,1,9,23.109v-5a.847.847,0,0,1,.845-.845h3.487V13.789a.841.841,0,0,1,.844-.844h4.989a.841.841,0,0,1,.844.844v3.478h3.487a.847.847,0,0,1,.845.845v5a.846.846,0,0,1-.845.844H20.006v3.488a.842.842,0,0,1-.844.844H14.173a.842.842,0,0,1-.844-.844V23.953Z" transform="translate(-0.026 -1.065)" fill="#fff"/></svg>