<svg xmlns="http://www.w3.org/2000/svg" width="44" height="44" viewBox="0 0 44 44"><path d="M0,0H44V44H0Z" fill="#17a2b8"/><g transform="translate(10 10.002)"><path d="M1.27,25.472a.244.244,0,0,1-.244-.243V7.27a.244.244,0,0,1,.244-.243H6.833V3.239A1.191,1.191,0,0,1,8.07,2.075c.12,0,.708-.009,2.832-.009,2.943,0,7.09.009,7.09.009l.04,0c.005,0,.041,0,.094,0a1.323,1.323,0,0,1,.866.282,1.1,1.1,0,0,1,.433.893c.008.109.019.692,0,3.39l0,.393H25a.243.243,0,0,1,.243.243V25.23a.243.243,0,0,1-.243.243H1.27Zm8.967-3.985a1.026,1.026,0,0,0,1.025,1.025h3.748a1.026,1.026,0,0,0,1.025-1.025V19.258h2.228a1.026,1.026,0,0,0,1.025-1.025V14.479a1.027,1.027,0,0,0-1.025-1.025H16.034V11.232a1.026,1.026,0,0,0-1.025-1.025H11.261a1.026,1.026,0,0,0-1.025,1.025v2.221H8.008a1.027,1.027,0,0,0-1.025,1.025v3.754a1.026,1.026,0,0,0,1.025,1.025h2.228ZM8.744,3.186a.729.729,0,0,0-.79.748V7.028H18.305V3.982a.821.821,0,0,0-.217-.565.747.747,0,0,0-.556-.222H8.89A1.093,1.093,0,0,0,8.744,3.186Z" transform="translate(-0.635 -1.675)" fill="#fff"/><path d="M10.293,1.847c2.943,0,7.089.009,7.09.009h.041l.032,0,.063,0a.94.94,0,0,1,.6.175.74.74,0,0,1,.312.639c.006.085.018.582,0,3.358l0,.787h5.82V24.471H.808V6.809H6.616V2.6a.8.8,0,0,1,.146-.4.778.778,0,0,1,.714-.339c.116,0,.7-.008,2.818-.008M6.954,6.809H18.087V3.379a1.215,1.215,0,0,0-.327-.844,1.15,1.15,0,0,0-.838-.341H8.3a1.549,1.549,0,0,0-.169-.009A1.122,1.122,0,0,0,6.954,3.324V6.809m2.282,5.645H7.4A1.418,1.418,0,0,0,5.983,13.87v3.754A1.418,1.418,0,0,0,7.4,19.04H9.236v1.838a1.418,1.418,0,0,0,1.416,1.416H14.4a1.417,1.417,0,0,0,1.416-1.416V19.04h1.837a1.418,1.418,0,0,0,1.416-1.416V13.87a1.418,1.418,0,0,0-1.416-1.416H15.815v-1.83A1.417,1.417,0,0,0,14.4,9.207H10.652a1.418,1.418,0,0,0-1.416,1.416v1.83M10.293,1.065c-1.472,0-2.643,0-2.845.009A1.581,1.581,0,0,0,5.833,2.63v3.4H.661a.634.634,0,0,0-.635.634V24.619a.634.634,0,0,0,.635.634H24.392a.634.634,0,0,0,.634-.634V6.66a.634.634,0,0,0-.634-.634H19.211c.006-1.026.017-3.141,0-3.42a1.475,1.475,0,0,0-.554-1.149,1.7,1.7,0,0,0-1.135-.389c-.083,0-.134.005-.134.005s-4.148-.008-7.091-.008ZM7.736,6.027v-2.7c0-.309.247-.357.4-.357a.675.675,0,0,1,.116.009h8.671a.373.373,0,0,1,.383.4V6.026H7.736ZM7.4,18.258a.636.636,0,0,1-.635-.634V13.869a.636.636,0,0,1,.635-.635h2.619V10.622a.632.632,0,0,1,.634-.634H14.4a.631.631,0,0,1,.634.634v2.612h2.619a.636.636,0,0,1,.635.635v3.754a.636.636,0,0,1-.635.634H15.034v2.62a.632.632,0,0,1-.634.634H10.653a.633.633,0,0,1-.634-.634v-2.62Z" transform="translate(-0.026 -1.065)" fill="#fff"/></g></svg>