<svg id="Layer_1" data-name="Layer 1" xmlns="http://www.w3.org/2000/svg" viewBox="0 0 3121.72 366"><defs><style>.cls-1{isolation:isolate;}.cls-2{fill:#343a40;}.cls-3,.cls-4{fill:#17a2b8;}.cls-4{stroke:#17a2b8;}</style></defs><g id="Artboard_1" data-name="Artboard 1"><g id="Group_1446" data-name="Group 1446"><g id="barkpointment" class="cls-1"><g class="cls-1"><path class="cls-2" d="M309.63,198.17q10.46,13.68,10.46,33.05,0,28.29-22.76,43.66t-65.8,15.37H115.31V75H225.39q41.19,0,62.72,15.22t21.52,41.05a51.1,51.1,0,0,1-7.53,27.51A52.71,52.71,0,0,1,280.73,178Q299.18,184.48,309.63,198.17ZM175.58,119v41.5h41.81q30.75,0,30.75-20.9,0-20.59-30.75-20.6Zm83,105.46q0-21.83-32-21.83h-51v43.66h51Q258.59,246.29,258.59,224.46Z"/><path class="cls-2" d="M496,248.44h-91L388,290.25h-62.1L420.93,75h60L576.2,290.25H512.87Zm-17.84-44.89-27.67-68.87-27.67,68.87Z"/><path class="cls-2" d="M687.51,233.07H654.3v57.18H593.42V75h98.39q29.21,0,50.73,9.68t33.21,27.68q11.68,18,11.68,42.27,0,23.37-10.91,40.74t-31.21,27.21l46.43,67.64H726.55Zm28.9-101.77Q706.87,123,688.12,123H654.3v63h33.82q18.75,0,28.29-8.14t9.53-23.22Q725.94,139.6,716.41,131.3Z"/><path class="cls-2" d="M904,212.16l-22.75,24.29v53.8H820.94V75h60.27V164.5L964.53,75h67l-87.94,95.31,92.55,119.91H965.45Z"/></g><g class="cls-1"><path class="cls-3" d="M1201.28,84.71q21.51,9.69,33.2,27.68t11.69,42.27q0,24.3-11.69,42.13t-33.2,27.51q-21.52,9.69-50.73,9.69H1113v56.26h-60.87V75h98.39Q1179.76,75,1201.28,84.71Zm-26.14,93.17q9.52-8.15,9.53-23.22t-9.53-23.36q-9.53-8.31-28.28-8.31H1113v63h33.83Q1165.61,186,1175.14,177.88Z"/><path class="cls-3" d="M1538.87,75h60.88V290.25h-60.88Z"/><path class="cls-3" d="M1847.87,75V290.25h-50.11l-95-114.68V290.25H1643.1V75h50.12l95,114.68V75Z"/><path class="cls-3" d="M1936.73,123.3h-66.1V75h192.78V123.3h-65.8v167h-60.88Z"/><path class="cls-3" d="M2280.48,290.25l-.62-114.07L2224.52,269h-27.06l-55-89.78v111h-56.26V75h50.12l75.63,124.21L2285.7,75h50.12l.62,215.22Z"/><path class="cls-3" d="M2552.28,243.21v47h-172.8V75h168.8v47H2439.74v36.28h95.63v45.51h-95.63v39.35Z"/><path class="cls-3" d="M2790.87,75V290.25h-50.12l-95-114.68V290.25H2586.1V75h50.11l95,114.68V75Z"/><path class="cls-3" d="M2879.73,123.3h-66.11V75H3006.4V123.3h-65.79v167h-60.88Z"/></g></g><g id="Path_3235" data-name="Path 3235"><path class="cls-4" d="M1282.67,219.66l18.35-5.3c.19.59.37,1.18.54,1.78a104.37,104.37,0,0,0,7.09,15.87l-14.3,10.79a108.56,108.56,0,0,1-10.4-19.68C1283.54,222,1283.1,220.8,1282.67,219.66Zm75.07,54.65a90.79,90.79,0,0,1-17.35-8.69l-7.63,12.29a106.24,106.24,0,0,0,22.36,8.81Zm-27.86-16.6a94.78,94.78,0,0,1-13.68-14.21c-.13-.16-.24-.33-.36-.5l-13.57,10.25c.43.5.84,1,1.28,1.5a108.3,108.3,0,0,0,18.08,16.2Zm60.21,23.5a96.7,96.7,0,0,1-19.8-3l-2.35,11.12h.06a102,102,0,0,0,23.29.81Zm100.16-100.14c-.18-3.1-.18-6.22-.52-9.31l-1.36-9.24c-.69-3-1.51-6-2.27-9.06a34.83,34.83,0,0,0-1.44-4.44l-1.59-4.39a107,107,0,0,0-206.67,42c.21,3.11.19,6.24.64,9.34l1.43,9.25.48,1.87,18.91-5.46-.07-.34c-.22-2.56-.52-5.07-.84-7.59s-.11-5.08-.22-7.61a53.48,53.48,0,0,1,.41-7.59l.3-3.78.72-3.71a49.89,49.89,0,0,1,1.55-7.36l1-3.62.49-1.81c.2-.59.46-1.17.69-1.75a86.6,86.6,0,0,1,14.56-26,91.38,91.38,0,0,1,134.91-6.62,39.35,39.35,0,0,1,2.81,2.82l2.56,3,2.6,3c.75,1.1,1.51,2.19,2.32,3.26l2.4,3.24c.83,1.07,1.4,2.29,2.12,3.43a63,63,0,0,1,4,7.09,98.51,98.51,0,0,1,9.55,31.63,85.18,85.18,0,0,1,.87,17,107,107,0,0,1-1.92,17.3l-.08.37a3.13,3.13,0,0,0,6,1.63,103.23,103.23,0,0,0,5.69-36.63Zm-51.89,91.28-.15.07a115,115,0,0,1-35,8.57l1,7.33a106,106,0,0,0,35.11-14,1.09,1.09,0,0,0-1-1.92Zm29.09-68.82,3.38,39.07L1503,220.18Zm-98.06-14.89-4.54,4.54a6.55,6.55,0,0,0,9.1,9.43l.17-.17,4.41-4.41a14.87,14.87,0,0,1-9.09-9.4Zm9.54-18.7-39.13-39.12a6.55,6.55,0,0,0-9.26,9.26l39,39a14.85,14.85,0,0,1,9.44-9.14Zm18.7,18.69a14.88,14.88,0,0,1-9.14,9.4l4.42,4.41a6.55,6.55,0,1,0,9.55-9,4.11,4.11,0,0,0-.29-.3Zm82.6-101.56a6.55,6.55,0,0,0-9.27,0h0l-82.87,82.87a14.86,14.86,0,0,1,9.39,9.14l82.79-82.73a6.54,6.54,0,0,0,0-9.26l0,0Zm-89.55,97a7.13,7.13,0,1,0-7.13,7.12h0a7.12,7.12,0,0,0,7.13-7.11Zm0,0a7.13,7.13,0,1,0-7.13,7.12h0a7.12,7.12,0,0,0,7.13-7.11Z"/></g></g></g></svg>